<?xml version="1.0" encoding="utf-8"?>
<!-- Generator: Adobe Illustrator 16.0.0, SVG Export Plug-In . SVG Version: 6.00 Build 0)  -->
<!DOCTYPE svg PUBLIC "-//W3C//DTD SVG 1.1//EN" "http://www.w3.org/Graphics/SVG/1.1/DTD/svg11.dtd">
<svg version="1.1" xmlns="http://www.w3.org/2000/svg" xmlns:xlink="http://www.w3.org/1999/xlink" x="0px" y="0px" width="100px"
	 height="100px" viewBox="0 0 100 100" enable-background="new 0 0 100 100" xml:space="preserve">
<g id="Layer_1" display="none">
	<g id="Layer_4_1_" display="inline">
		<g>
			<g>
				<path fill="#019547" d="M49.69,41.999v4.699h-5.24v-4.495c-4.08-0.123-7.447-1.077-10.193-3.911l4.657-4.661
					c1.497,1.5,4.038,2.04,6.369,2.083v-5.491l-1.626-0.21c-2.618-0.332-4.617-1.247-5.948-2.623
					c-1.373-1.414-2.04-3.409-2.04-5.949c0-4.824,3.246-8.53,8.781-9.234V8.418h5.24v3.706c3.498,0.204,6.244,1.288,8.445,3.493
					l-4.572,4.577c-1.296-1.291-3.455-1.622-4.703-1.708v5.204l1.705,0.247c2.662,0.377,4.576,1.21,5.822,2.457
					c1.583,1.537,2.21,3.744,2.21,6.49C58.596,38.087,54.728,41.206,49.69,41.999z M45.282,18.528
					c-1.833,0.336-2.581,1.542-2.581,2.664c0,0.375,0.125,0.917,0.583,1.375c0.371,0.372,0.996,0.749,1.999,0.874v-4.914H45.282z
					 M50.854,31.305c-0.498-0.539-1.291-0.709-1.994-0.79v5.075c1.748-0.332,2.578-1.206,2.578-2.537
					C51.438,32.344,51.271,31.721,50.854,31.305z"/>
			</g>
			<g>
				<path fill="#019547" d="M64.005,82.851v5.681h-6.338v-5.429c-4.925-0.153-8.997-1.308-12.316-4.727l5.63-5.634
					c1.812,1.811,4.877,2.464,7.697,2.516v-6.639l-1.966-0.252c-3.163-0.402-5.575-1.51-7.188-3.171
					c-1.66-1.708-2.463-4.119-2.463-7.188c0-5.834,3.92-10.308,10.606-11.164v-4.573h6.338v4.476
					c4.225,0.25,7.542,1.557,10.209,4.223l-5.532,5.526c-1.56-1.557-4.174-1.955-5.682-2.059v6.287l2.06,0.299
					c3.219,0.454,5.532,1.46,7.044,2.968c1.91,1.862,2.663,4.527,2.663,7.846C74.766,78.126,70.091,81.896,64.005,82.851z
					 M58.679,54.489c-2.217,0.404-3.118,1.859-3.118,3.217c0,0.451,0.147,1.108,0.704,1.66c0.446,0.45,1.206,0.905,2.414,1.054
					V54.489z M65.41,69.926c-0.601-0.653-1.557-0.853-2.41-0.955v6.136c2.111-0.404,3.117-1.461,3.117-3.065
					C66.117,71.183,65.916,70.427,65.41,69.926z"/>
			</g>
			<g>
				<path fill="#019547" d="M35.75,64.663v2.727h-3.042v-2.605c-2.364-0.07-4.316-0.626-5.912-2.27l2.704-2.704
					c0.871,0.871,2.341,1.183,3.696,1.206v-3.184l-0.941-0.123c-1.524-0.192-2.683-0.721-3.456-1.521
					c-0.793-0.819-1.179-1.978-1.179-3.447c0-2.802,1.88-4.95,5.088-5.358v-2.198h3.042v2.15c2.029,0.118,3.624,0.746,4.902,2.026
					l-2.656,2.655c-0.749-0.749-2.002-0.94-2.727-0.989v3.016l0.99,0.146c1.543,0.216,2.656,0.701,3.38,1.422
					c0.914,0.895,1.281,2.176,1.281,3.768C40.919,62.396,38.67,64.204,35.75,64.663z M33.194,51.05
					c-1.063,0.193-1.498,0.891-1.498,1.545c0,0.216,0.072,0.531,0.339,0.797c0.217,0.215,0.576,0.434,1.158,0.508L33.194,51.05
					L33.194,51.05z M36.427,58.46c-0.291-0.312-0.748-0.41-1.159-0.457v2.942c1.016-0.192,1.497-0.701,1.497-1.474
					C36.766,59.062,36.671,58.699,36.427,58.46z"/>
			</g>
		</g>
	</g>
</g>
<g id="Layer_2" display="none">
	<g id="Layer_5" display="inline">
		<g>
			<g>
				<path fill="#D45AA1" d="M25.237,63.92V38.557l-7.176,6.236v-8.267l7.176-6.233h7.744V63.92H25.237z"/>
			</g>
			<g>
				<path fill="#D45AA1" d="M36.927,79.454v-6.991l12.183-13.219c1.229-1.323,1.699-2.178,1.699-3.592
					c0-1.842-1.039-3.119-3.022-3.119c-1.415,0-3.114,0.662-3.114,3.258h-7.744c0-6.61,5.006-10.244,10.858-10.244
					c6.237,0,10.767,3.822,10.767,10.151c0,3.546-1.461,5.43-4.152,8.268l-8.028,8.497h12.183v6.991H36.927L36.927,79.454z"/>
			</g>
			<g>
				<path fill="#D45AA1" d="M70.266,55.236c-5.576,0-11.193-2.973-11.193-10.527h7.744c0,2.361,1.511,3.541,3.449,3.541
					c2.028,0,3.444-1.18,3.444-3.588c0-2.029-1.512-3.545-3.592-3.545h-1.084v-6.706h1.084c2.313,0,3.215-1.649,3.215-3.161
					c0-2.126-1.465-3.214-3.067-3.214c-1.607,0-3.072,1.138-3.072,3.168h-7.746c0-6.329,4.818-10.155,10.818-10.155
					c6.229,0,10.812,4.157,10.812,9.963c0,3.684-1.796,5.48-3.495,6.568c1.842,1.272,3.872,3.303,3.872,7.317
					C81.454,51.934,76.163,55.236,70.266,55.236z"/>
			</g>
		</g>
	</g>
</g>
<g id="Layer_3" display="none">
	<g id="Layer_5_2_" display="inline">
		<g>
			<path fill="#2BACE2" d="M86.916,47.04c0,19.956-16.258,36.131-36.312,36.131c-20.061,0-36.318-16.175-36.318-36.131
				c0-19.95,16.258-36.126,36.318-36.126C70.658,10.914,86.916,27.09,86.916,47.04z"/>
			<g>
				<g>
					<defs>
						<circle id="SVGID_1_" cx="50.598" cy="47.04" r="36.316"/>
					</defs>
					<clipPath id="SVGID_2_">
						<use xlink:href="#SVGID_1_"  overflow="visible"/>
					</clipPath>
					<polygon clip-path="url(#SVGID_2_)" fill="#019547" points="22.606,22.264 28.278,32.1 28.278,40.801 29.413,39.854 
						30.357,32.287 35.655,33.611 40.005,42.312 49.463,43.635 57.598,44.204 59.299,50.445 56.273,55.363 51.355,62.359 
						56.273,72.766 64.406,74.654 68.566,81.656 66.484,94.326 80.48,76.738 87.104,55.93 73.861,43.447 63.27,43.447 
						57.975,41.555 51.732,39.664 47.192,31.53 52.488,30.018 57.785,34.559 54.381,28.316 55.893,22.639 56.273,16.399 
						57.217,12.049 58.541,5.239 52.68,8.833 45.113,9.21 25.252,9.022 11.446,15.643 					"/>
				</g>
			</g>
		</g>
	</g>
</g>
<g id="Layer_4">
	<g id="Layer_6_1_">
		<g>
			<polygon fill="#EF4237" points="2.646,40.594 8.479,41.025 17.118,52.475 33.966,25.473 44.766,26.985 15.391,68.674 			"/>
			<polygon fill="#EF4237" points="37.477,50.57 45.788,51.186 58.1,67.5 82.109,29.024 97.5,31.18 55.639,90.585 			"/>
			<polygon fill="#EF4237" points="43.794,17.627 47.149,17.874 52.116,24.458 61.804,8.932 68.014,9.801 51.123,33.772 			"/>
		</g>
	</g>
</g>
</svg>
