<?xml version="1.0" encoding="utf-8"?>
<!-- Generator: Adobe Illustrator 16.0.0, SVG Export Plug-In . SVG Version: 6.00 Build 0)  -->
<!DOCTYPE svg PUBLIC "-//W3C//DTD SVG 1.1//EN" "http://www.w3.org/Graphics/SVG/1.1/DTD/svg11.dtd">
<svg version="1.1" id="Layer_1" xmlns="http://www.w3.org/2000/svg" xmlns:xlink="http://www.w3.org/1999/xlink" x="0px" y="0px"
	 width="50px" height="50px" viewBox="0 0 50 50" enable-background="new 0 0 50 50" xml:space="preserve">
<g id="g24399" transform="matrix(0.81249983,0,0,0.81249983,-96.062435,8.749998)">
	<path id="path6615" fill="#030303" d="M149-2.4c-12.371,0-22.4,10.029-22.4,22.4c0,12.371,10.029,22.4,22.4,22.4
		c12.371,0,22.4-10.029,22.4-22.4C171.4,7.629,161.371-2.4,149-2.4z"/>
	<path id="path6617" fill="#FFFFFF" d="M151.098,33.65h-5.641V19.998h-2.819v-4.704h2.819V12.47c0-3.838,1.59-6.12,6.112-6.12h3.762
		v4.705h-2.352c-1.761,0-1.876,0.657-1.876,1.884l-0.007,2.354h4.262l-0.5,4.705h-3.762v13.651h0.001v0.001H151.098z"/>
</g>
</svg>
