<?xml version="1.0" encoding="utf-8"?>
<!-- Generator: Adobe Illustrator 16.0.0, SVG Export Plug-In . SVG Version: 6.00 Build 0)  -->
<!DOCTYPE svg PUBLIC "-//W3C//DTD SVG 1.1//EN" "http://www.w3.org/Graphics/SVG/1.1/DTD/svg11.dtd">
<svg version="1.1" id="Layer_1" xmlns="http://www.w3.org/2000/svg" xmlns:xlink="http://www.w3.org/1999/xlink" x="0px" y="0px"
	 width="50px" height="50px" viewBox="0 0 50 50" enable-background="new 0 0 50 50" xml:space="preserve">
<g id="g24422" transform="matrix(0.81249983,0,0,0.81249983,-96.06243,-111.24995)">
	<path id="path3928" fill="#030303" d="M148.895,145.293c-12.371,0-22.4,10.029-22.4,22.4c0,12.371,10.029,22.4,22.4,22.4
		c12.371,0,22.4-10.029,22.4-22.4C171.296,155.321,161.267,145.293,148.895,145.293z"/>
	<path id="path3930" fill="#FFFFFF" d="M146.183,156.553c-0.825,0-1.727,0.106-2.692,0.307c-0.945,0.2-1.849,0.653-2.712,1.356
		c-0.643,0.563-1.122,1.201-1.443,1.925c-0.322,0.704-0.483,1.407-0.483,2.111c0,0.584,0.108,1.168,0.329,1.75
		c0.221,0.563,0.54,1.068,0.962,1.51c0.421,0.442,0.951,0.801,1.575,1.083c0.621,0.262,1.329,0.394,2.133,0.394h0.482
		c0.162-0.02,0.332-0.046,0.492-0.067c-0.081,0.181-0.159,0.367-0.218,0.547c-0.061,0.161-0.088,0.374-0.088,0.634
		c0,0.462,0.093,0.849,0.275,1.171c0.201,0.303,0.413,0.594,0.634,0.875c-0.341,0.02-0.753,0.058-1.213,0.099
		c-0.463,0.041-0.954,0.108-1.477,0.208c-0.522,0.101-1.055,0.234-1.597,0.393c-0.522,0.18-1.015,0.409-1.475,0.689
		c-0.884,0.523-1.484,1.133-1.805,1.816c-0.342,0.703-0.514,1.317-0.514,1.858c0,0.564,0.132,1.106,0.393,1.608
		c0.261,0.523,0.661,0.976,1.204,1.38c0.542,0.401,1.219,0.731,2.023,0.972c0.824,0.242,1.78,0.362,2.866,0.362
		c1.287,0,2.416-0.172,3.401-0.513c1.004-0.321,1.841-0.758,2.504-1.302c0.663-0.522,1.168-1.12,1.51-1.803
		c0.341-0.683,0.514-1.375,0.514-2.079c0-0.522-0.079-0.988-0.219-1.389c-0.142-0.399-0.329-0.76-0.569-1.082
		c-0.221-0.321-0.499-0.625-0.821-0.909c-0.3-0.281-0.608-0.559-0.929-0.841l-1.083-0.843c-0.161-0.141-0.333-0.311-0.513-0.492
		c-0.18-0.201-0.274-0.468-0.274-0.809c0-0.341,0.093-0.621,0.274-0.842c0.18-0.221,0.367-0.433,0.568-0.635
		c0.322-0.24,0.639-0.492,0.941-0.754c0.302-0.28,0.567-0.586,0.81-0.908c0.24-0.341,0.437-0.715,0.579-1.138
		c0.141-0.421,0.208-0.913,0.208-1.475s-0.081-1.067-0.242-1.509c-0.16-0.442-0.358-0.826-0.579-1.15
		c-0.221-0.341-0.449-0.621-0.689-0.841c-0.242-0.242-0.454-0.438-0.633-0.579h1.87l1.925-1.083h-6.204v-0.004H146.183z
		 M157.165,156.936v3.948h-3.948v1.434h3.948v3.949h1.433v-3.949h3.948v-1.434h-3.948v-3.948H157.165z M144.279,157.549
		c0.623,0,1.167,0.2,1.63,0.58c0.483,0.362,0.88,0.816,1.203,1.378c0.322,0.563,0.562,1.172,0.722,1.815
		c0.162,0.644,0.241,1.23,0.241,1.772c0,0.282-0.04,0.639-0.12,1.061c-0.08,0.422-0.292,0.808-0.634,1.149
		c-0.242,0.242-0.547,0.441-0.929,0.601c-0.362,0.162-0.734,0.242-1.117,0.241c-0.642,0-1.203-0.185-1.683-0.547
		c-0.463-0.38-0.86-0.846-1.183-1.388c-0.3-0.543-0.528-1.116-0.688-1.739c-0.142-0.622-0.218-1.192-0.218-1.695
		c0-0.401,0.039-0.788,0.12-1.171c0.1-0.38,0.285-0.738,0.547-1.062c0.24-0.3,0.547-0.54,0.93-0.721
		C143.481,157.641,143.878,157.549,144.279,157.549L144.279,157.549z M145.33,171.001h0.426h0.361c0.1,0,0.208,0,0.329,0.02
		c0.562,0.404,1.054,0.774,1.476,1.094c0.421,0.322,0.766,0.629,1.028,0.93c0.262,0.3,0.458,0.607,0.579,0.909
		c0.141,0.32,0.209,0.666,0.209,1.049c0,0.943-0.385,1.716-1.149,2.318c-0.743,0.623-1.834,0.94-3.282,0.94
		c-1.628,0-2.929-0.345-3.893-1.028c-0.945-0.684-1.412-1.562-1.412-2.648c0-0.542,0.095-0.995,0.296-1.356
		c0.221-0.363,0.472-0.667,0.755-0.909c0.28-0.24,0.559-0.438,0.842-0.579c0.3-0.12,0.538-0.202,0.7-0.262
		c0.322-0.101,0.654-0.194,0.995-0.274c0.341-0.06,0.661-0.113,0.963-0.154C144.854,171.036,145.108,171.022,145.33,171.001
		L145.33,171.001z"/>
</g>
</svg>
