<?xml version="1.0" encoding="utf-8"?>
<!-- Generator: Adobe Illustrator 16.0.0, SVG Export Plug-In . SVG Version: 6.00 Build 0)  -->
<!DOCTYPE svg PUBLIC "-//W3C//DTD SVG 1.1//EN" "http://www.w3.org/Graphics/SVG/1.1/DTD/svg11.dtd">
<svg version="1.1" id="Layer_1" xmlns="http://www.w3.org/2000/svg" xmlns:xlink="http://www.w3.org/1999/xlink" x="0px" y="0px"
	 width="203.666px" height="246.666px" viewBox="0 0 203.666 246.666" enable-background="new 0 0 203.666 246.666"
	 xml:space="preserve">
<g>
	<g>
		<path fill="#EA9E7D" d="M12.247,116.177c3.747-1.407,20.829,11.79,21.521,7.854c1.745-9.891,17.16-13.089,27.342-9.015
			c1.625,0.651,1.168-6.903-0.583-6.986c-6.398-0.286-18.339,2.33-22.102-1.744c-1.58-1.707,2.448-5.94,3.781-7.854
			c1.55-2.227,3.71-4.848,6.398-5.233c7.213-1.037,24.269-3.436,29.083,2.037c5.772,6.566,1.655,26.976-2.037,34.904
			c-3.166,6.808-19.155,13.627-21.81,20.649c-4.892,12.93,4.942,83.287,4.942,83.287l-36.672,3.489c0,0,8.281-72.467,4.68-85.03
			c-1.73-6.043-12.451-10.946-13.38-17.161C12.939,132.215,9.26,117.292,12.247,116.177z"/>
		<path fill="#EA9E7D" d="M5.266,78.075c1.444-2.21,7.969-4.095,7.853-1.451c-0.288,6.686,2.912,14.831,5.526,18.612
			c1.287,1.858-6.03,3.657-7.854,2.328C6.703,94.576,2.499,82.316,5.266,78.075z"/>
		<path fill="#EA9E7D" d="M14.571,65.281c-0.584-2.607,9.239-5.698,10.182-3.2c3.197,8.433,6.398,22.397,9.891,27.922
			c1.658,2.623-10.875,5.128-12.219,2.325C19.228,85.638,16.608,74.294,14.571,65.281z"/>
		<path fill="#EA9E7D" d="M30.28,55.681c-0.623-3.733,10.47-7.561,12.218,0.583c1.902,8.889,8.139,27.629,6.397,32.864
			c-0.827,2.485-9.216,2.59-10.471,0.291C34.936,83.017,32.607,69.638,30.28,55.681z"/>
		<path fill="#EA9E7D" d="M51.22,61.498c0-1.892,7.33-1.877,7.562,0c0.872,6.979,4.073,18.906,5.233,23.555
			c0.574,2.284-7.412,2.86-9.305,1.457C49.64,82.748,51.22,67.315,51.22,61.498z"/>
	</g>
	<g>
		<path fill="#E2ACCF" d="M69.272,70.356c3.747-1.4,20.828,11.792,21.524,7.854c1.746-9.889,17.161-13.087,27.336-9.014
			c1.625,0.651,1.169-6.903-0.577-6.979c-6.402-0.293-18.342,2.324-22.108-1.744c-1.581-1.711,2.455-5.946,3.78-7.854
			c1.55-2.232,3.713-4.852,6.401-5.239c7.211-1.034,24.272-3.437,29.081,2.037c5.779,6.562,1.653,26.981-2.03,34.901
			c-3.167,6.813-19.16,13.628-21.817,20.65c-4.889,12.93,5.181,118.533,5.181,118.533l-36.469,14.406
			c0,0,7.839-118.63,4.245-131.195c-1.736-6.042-12.452-10.945-13.383-17.159C69.964,86.401,66.284,71.479,69.272,70.356z"/>
		<path fill="#E2ACCF" d="M62.293,32.259c1.442-2.214,7.967-4.095,7.854-1.458c-0.292,6.694,2.905,14.836,5.527,18.617
			c1.279,1.852-6.036,3.658-7.854,2.326C63.731,48.756,59.524,36.499,62.293,32.259z"/>
		<path fill="#E2ACCF" d="M71.6,19.459c-0.592-2.598,9.231-5.69,10.182-3.198c3.196,8.437,6.395,22.394,9.884,27.92
			c1.661,2.628-10.872,5.131-12.212,2.328C76.249,39.82,73.637,28.479,71.6,19.459z"/>
		<path fill="#E2ACCF" d="M87.308,9.861c-0.622-3.729,10.466-7.561,12.21,0.583c1.91,8.889,8.147,27.632,6.402,32.865
			c-0.831,2.482-9.217,2.594-10.474,0.292C91.957,37.205,89.629,23.825,87.308,9.861z"/>
		<path fill="#E2ACCF" d="M108.241,15.679c0-1.887,7.33-1.873,7.563,0c0.875,6.982,4.072,18.904,5.24,23.562
			c0.57,2.283-7.419,2.854-9.306,1.451C106.669,36.926,108.241,21.496,108.241,15.679z"/>
	</g>
	<g>
		<path fill="#966451" d="M131.562,100.024c3.752-1.404,20.839,11.792,21.527,7.854c1.744-9.891,17.162-13.089,27.344-9.016
			c1.624,0.651,1.167-6.902-0.585-6.982c-6.394-0.29-18.336,2.33-22.102-1.744c-1.579-1.708,2.448-5.944,3.782-7.854
			c1.548-2.23,3.714-4.852,6.4-5.231c7.209-1.042,24.265-3.437,29.078,2.036c5.774,6.562,1.655,26.976-2.035,34.9
			c-3.167,6.81-19.151,13.626-21.809,20.648c-4.89,12.934,4.94,106.665,4.94,106.665l-44.257-3.735
			c0,0,15.866-88.618,12.262-101.184c-1.729-6.043-12.449-10.945-13.378-17.161C132.26,116.065,128.576,101.142,131.562,100.024z"/>
		<path fill="#966451" d="M124.586,61.925c1.445-2.215,7.967-4.096,7.854-1.455c-0.293,6.689,2.912,14.835,5.524,18.616
			c1.288,1.854-6.034,3.654-7.854,2.324C126.022,78.424,121.815,66.165,124.586,61.925z"/>
		<path fill="#966451" d="M133.893,49.127c-0.584-2.603,9.239-5.694,10.182-3.2c3.197,8.437,6.395,22.397,9.891,27.922
			c1.663,2.623-10.88,5.132-12.221,2.325C138.549,69.488,135.928,58.145,133.893,49.127z"/>
		<path fill="#966451" d="M149.601,39.527c-0.623-3.729,10.475-7.562,12.219,0.583c1.9,8.889,8.139,27.632,6.402,32.867
			c-0.833,2.482-9.217,2.591-10.476,0.292C154.259,66.867,151.93,53.488,149.601,39.527z"/>
		<path fill="#966451" d="M170.542,45.345c0-1.889,7.329-1.874,7.562,0c0.877,6.982,4.073,18.907,5.234,23.559
			c0.576,2.283-7.413,2.86-9.307,1.452C168.964,66.596,170.542,51.162,170.542,45.345z"/>
	</g>
</g>
</svg>
