<?xml version="1.0" encoding="utf-8"?>
<!-- Generator: Adobe Illustrator 16.0.0, SVG Export Plug-In . SVG Version: 6.00 Build 0)  -->
<!DOCTYPE svg PUBLIC "-//W3C//DTD SVG 1.1//EN" "http://www.w3.org/Graphics/SVG/1.1/DTD/svg11.dtd">
<svg version="1.1" id="Layer_1" xmlns="http://www.w3.org/2000/svg" xmlns:xlink="http://www.w3.org/1999/xlink" x="0px" y="0px"
	 width="245.984px" height="35.768px" viewBox="0 0 245.984 35.768" enable-background="new 0 0 245.984 35.768"
	 xml:space="preserve">
<g enable-background="new    ">
	<path fill="#FFFFFF" d="M19.743,31.296H8.585V5.667h10.619c5.327,0,8.171,2.987,8.171,7.415c0,2.916-2.016,4.535-2.808,5.075
		c1.044,0.648,3.167,1.98,3.167,5.58C27.734,28.632,24.315,31.296,19.743,31.296z M18.807,11.319h-3.923v4.176h3.923
		c1.728,0,2.268-1.08,2.268-2.088S20.535,11.319,18.807,11.319z M19.131,21.146h-4.247v4.499h4.247c1.728,0,2.304-1.188,2.304-2.268
		S20.859,21.146,19.131,21.146z"/>
	<path fill="#FFFFFF" d="M32.093,31.296V5.667h6.299v20.014h10.763v5.615H32.093z"/>
	<path fill="#FFFFFF" d="M67.983,28.632c-1.872,1.872-4.031,2.88-7.163,2.88s-5.291-1.008-7.163-2.88
		c-2.699-2.699-2.592-6.299-2.592-10.15s-0.107-7.451,2.592-10.15c1.872-1.872,4.031-2.88,7.163-2.88s5.291,1.008,7.163,2.88
		c2.699,2.699,2.592,6.299,2.592,10.15S70.682,25.933,67.983,28.632z M63.34,12.183c-0.468-0.612-1.368-1.116-2.52-1.116
		s-2.052,0.504-2.52,1.116c-0.576,0.756-0.937,1.619-0.937,6.299s0.36,5.508,0.937,6.264c0.468,0.611,1.368,1.151,2.52,1.151
		s2.052-0.54,2.52-1.151c0.576-0.756,0.937-1.584,0.937-6.264S63.916,12.939,63.34,12.183z"/>
	<path fill="#FFFFFF" d="M83.823,31.512c-2.987,0-5.255-1.008-7.127-2.88c-2.699-2.699-2.592-6.299-2.592-10.15
		s-0.107-7.451,2.592-10.15c1.872-1.872,4.14-2.88,7.127-2.88c4.859,0,8.783,2.699,9.719,8.351h-6.407
		c-0.396-1.439-1.188-2.735-3.275-2.735c-1.151,0-2.016,0.468-2.483,1.08c-0.576,0.756-0.973,1.655-0.973,6.335
		s0.396,5.579,0.973,6.335c0.468,0.612,1.332,1.08,2.483,1.08c2.088,0,2.88-1.296,3.275-2.735h6.407
		C92.606,28.813,88.682,31.512,83.823,31.512z"/>
</g>
<g enable-background="new    ">
	<path fill="#FFFFFF" d="M105.568,31.512c-3.779,0-6.191-1.044-8.531-3.384l1.368-1.367c2.304,2.304,4.211,3.023,7.271,3.023
		c4.067,0,6.587-1.943,6.587-5.291c0-1.548-0.432-2.772-1.404-3.6c-0.972-0.756-1.584-1.08-3.708-1.368l-2.988-0.468
		c-1.944-0.288-3.456-0.9-4.571-1.872c-1.332-1.116-2.016-2.699-2.016-4.715c0-4.32,3.024-7.02,7.955-7.02
		c3.168,0,5.184,0.864,7.379,2.771l-1.26,1.26c-1.512-1.439-3.204-2.376-6.227-2.376c-3.744,0-5.939,2.017-5.939,5.292
		c0,1.476,0.432,2.592,1.332,3.348s2.376,1.332,3.815,1.584l2.772,0.432c2.412,0.324,3.527,0.792,4.571,1.691
		c1.404,1.152,2.232,2.916,2.232,4.968C114.207,28.777,110.931,31.512,105.568,31.512z"/>
	<path fill="#FFFFFF" d="M126.987,31.296h-1.943V7.395h-7.631V5.667h17.241v1.728h-7.667V31.296z"/>
	<path fill="#FFFFFF" d="M150.385,25.069h-11.95l-2.231,6.228h-2.088l9.431-25.629h1.728l9.431,25.629h-2.087L150.385,25.069z
		 M139.048,23.341h10.727l-5.363-15.082L139.048,23.341z"/>
	<path fill="#FFFFFF" d="M168.206,19.49h-7.055v11.807h-1.943V5.667h9.754c4.176,0,7.344,2.412,7.344,6.875
		c0,3.852-2.304,6.3-5.903,6.911l6.191,11.843h-2.269L168.206,19.49z M168.71,7.395h-7.559v10.367h7.559
		c3.312,0,5.651-1.62,5.651-5.184S172.021,7.395,168.71,7.395z"/>
	<path fill="#FFFFFF" d="M189.554,31.296h-1.943V7.395h-7.631V5.667h17.241v1.728h-7.667V31.296z"/>
	<path fill="#FFFFFF" d="M202.263,5.667h15.55v1.728h-13.606V17.51h11.591v1.728h-11.591v10.331h13.606v1.728h-15.55V5.667z"/>
	<path fill="#FFFFFF" d="M232.789,19.49h-7.055v11.807h-1.943V5.667h9.754c4.176,0,7.344,2.412,7.344,6.875
		c0,3.852-2.304,6.3-5.903,6.911l6.191,11.843h-2.269L232.789,19.49z M233.293,7.395h-7.559v10.367h7.559
		c3.312,0,5.651-1.62,5.651-5.184S236.604,7.395,233.293,7.395z"/>
</g>
</svg>
