<?xml version="1.0" encoding="utf-8"?>
<!-- Generator: Adobe Illustrator 16.0.0, SVG Export Plug-In . SVG Version: 6.00 Build 0)  -->
<!DOCTYPE svg PUBLIC "-//W3C//DTD SVG 1.1//EN" "http://www.w3.org/Graphics/SVG/1.1/DTD/svg11.dtd">
<svg version="1.1" id="Layer_1" xmlns="http://www.w3.org/2000/svg" xmlns:xlink="http://www.w3.org/1999/xlink" x="0px" y="0px"
	 width="150px" height="150px" viewBox="0 0 150 150" enable-background="new 0 0 150 150" xml:space="preserve">
<g>
	<path fill="#030303" d="M11.481,130.062c0,0-3.842,3.719-5.49,4.393c-0.786,0.32,1.483,2.751,2.298,2.995
		c1.902,0.569,6.987-3.793,6.987-3.793L11.481,130.062z"/>
	<path fill="#010101" d="M36.042,130.66c0,0,2.192,2.668,3.571,2.82c0.987,0.108,5.007-0.229,5.017-1.225
		c0.009-0.915-2.48-1.224-3.197-1.798c-0.524-0.418-1.797-1.996-1.797-1.996L36.042,130.66z"/>
	<path fill="#2075BC" d="M13.88,109.691c0,0-0.276,15.701-3.32,20.568c-0.651,1.041,4.717,3.396,4.717,3.396l5.99-20.367
		c0,0,5.579,3.709,7.586,5.99c2.162,2.455,7.188,11.381,7.188,11.381l3.945-1.672l-7.039-17.747L13.88,109.691z"/>
	<path fill="#2BACE2" d="M26.06,67.361c0,0-21.166,31.749-12.978,41.934c0,0,14.573,5.592,19.366,2.994
		c5.452-2.955,0.264-14.215-0.197-20.966c-0.332-4.818,2.396-19.169,2.396-19.169L26.06,67.361z"/>
	<path fill="#EA9F7E" d="M39.238,29.023L20.271,32.22L9.488,48.993c0,0,11.442,16.342,16.773,20.166
		c4.736,3.399,14.417,6.784,19.965,4.993c2.167-0.701,7.158-4.487,4.994-5.194c-8.585-2.794-12.133-8.258-8.585-7.785
		c2.993,0.4,10.382-4.893,10.382-4.893s-6.987-3.692-7.387-15.475C45.229,29.023,39.238,29.023,39.238,29.023z"/>
	<polygon fill="#2BACE2" points="21.267,81.537 23.664,76.945 42.833,84.934 53.816,75.748 57.011,77.145 43.034,90.125 	"/>
	<path fill="#EA9F7E" d="M53.816,75.748l-1.001-5.593l1.198-0.196l0.8,1.596c0,0,2.401-3.486,3.994-4.392
		c0.894-0.508,3.119-1.912,3.592-0.999c0.766,1.474-2.396,6.191-2.396,6.191l-2.993,4.789L53.816,75.748z"/>
	<ellipse fill="#976552" cx="37.64" cy="47.694" rx="1.598" ry="1.898"/>
	<path fill="#976552" d="M33.248,45.796c0,0,1.619-3.079,5.19-3.795C41.433,41.401,33.248,45.796,33.248,45.796z"/>
	<path fill="#976552" d="M39.037,29.023c0,0-5.789,22.165-14.976,21.764c-9.182-0.4,9.653,19.991,6.589,28.154
		c-2.396,6.391-27.724,19.063-24.159,12.58C8.687,87.527,8.636,70,7.489,64.366c-0.838-4.114-5.05-10.579-5.191-14.774
		c-0.293-8.696,8.676-28.16,17.374-28.356C28.456,21.034,41.316,30.493,39.037,29.023z"/>
	<g>
		<path fill="#2BACE2" d="M93.055,69.856"/>
		<path fill="#EA9F7E" d="M97.645,50.289c0.474-1.142,4.793-1.198,4.793-1.198l-5.189-19.567l22.363-5.192
			c0,0,8.578,21.918,9.584,27.956c0.916,5.487-1.598,15.575-1.598,15.575s-6.848,6.569-10.384,5.19
			c-4.004-1.561-7.312-12.107-11.183-13.977c-0.992-0.48-1.766,2.104-2.396,1.198C103.177,59.614,96.977,51.903,97.645,50.289z"/>
		<polygon fill="#EA9F7E" points="128.795,59.274 133.189,72.057 126.398,74.052 124.602,68.461 		"/>
		<path fill="#2075BC" d="M131.991,72.453c2.686-1.49,5.42-8.188,8.387-8.985c1.254-0.337,4.315,0.789,4.792,1.999
			c3.85,9.805-9.984,40.934-9.984,40.934s-31.412,1.597-26.558-2.996c5.49-5.191,8.701-23.026,14.774-28.153
			C125.13,73.792,130.018,73.549,131.991,72.453z"/>
		<path fill="#2075BC" d="M140.177,62.67"/>
		<path fill="#EA9F7E" d="M119.811,84.133c-3.543,0.25-9.437-2.992-12.979-5.789c-0.026-0.021-0.117,0.076-0.117,0.076l-2.629-3.421
			l-1.647,0.351l0.897,2.795l-4.291-0.099c0,0-7.276-1.21-6.491,0.099c1.497,2.496,8.889,4.193,8.889,4.193h3.094
			c0,0,12.168,6.77,16.873,8.188c3.644,1.099,13.378-9.385,13.378-9.385l0.599-6.791C135.384,74.35,124.396,83.807,119.811,84.133z"
			/>
		<path fill="#976552" d="M98.645,32.519c-1.289,0.578-4.193-3.795-4.193-3.795l3.193-0.798c0,0,6.69-8.445,9.985-10.383
			c2.935-1.727,9.021-4.362,11.979-3.396c2.418,0.789,6.99,7.388,6.99,7.388s-2.494-0.384-3.197,0
			c-1.276,0.702-2.392,3.772-3.594,4.593C115.246,29.248,104.436,29.922,98.645,32.519z"/>
		<circle fill="#976552" cx="112.322" cy="45.197" r="1.896"/>
		<path fill="#976552" d="M122.706,41.704c0,1.048-0.851,1.897-1.897,1.897c-1.045,0-1.896-0.849-1.896-1.897
			c0-1.046,0.852-1.898,1.896-1.898C121.855,39.806,122.706,40.658,122.706,41.704z"/>
		<path fill="#976552" d="M106.232,42.501c0,0,1.617-3.08,5.189-3.795C114.418,38.107,106.232,42.501,106.232,42.501z"/>
		<path fill="#976552" d="M115.938,37.402c0,0,2.563-2.349,6.168-1.813C125.126,36.041,115.938,37.402,115.938,37.402z"/>
		<path fill="#976552" d="M115.218,59.274c4.593-0.397,5.789-1.399,7.986-2.794c2.127-1.353,1.049,10.593-1.396,9.982
			C119.411,65.864,112.789,59.485,115.218,59.274z"/>
		<path fill="#976552" d="M101.04,51.588c-0.218-0.878-0.04,2.805,0.399,3.594c0.431,0.775,3.305,2.923,2.793,2.197
			C102.837,55.381,101.838,54.782,101.04,51.588z"/>
		<path fill="#976552" d="M115.583,54.917c-0.776,0.061,2.324,0.529,3.071,0.229c0.734-0.29,3.119-2.756,2.41-2.382
			C119.111,53.799,118.407,54.684,115.583,54.917z"/>
		<path fill="#010101" d="M143.172,124.57l-8.783-20.566l-20.968-0.6l-9.784,19.367l-4.794,1.799c0,0-0.174,2.022,0.3,2.396
			c0.768,0.604,2.998,0.688,3.895,0.3c1.281-0.555,4.193-3.692,4.193-3.692l16.174-17.771L127,106l11.98,18.971
			c0,0,0.281,3.9,1.195,4.691c1.083,0.936,4.971,1.836,5.69,0.599C146.661,128.9,143.172,124.57,143.172,124.57z"/>
	</g>
	<path fill="#E3A4C9" d="M81.372,35.612H68.591c-6.901,0-12.496,5.595-12.496,12.496c0,2.733,0.889,5.256,2.382,7.315l-2.958,6.332
		l6.482-3.047c1.914,1.193,4.167,1.896,6.589,1.896h12.781c6.902,0,12.496-5.595,12.496-12.496
		C93.868,41.208,88.275,35.612,81.372,35.612z"/>
</g>
</svg>
