<?xml version="1.0" encoding="utf-8"?>
<!-- Generator: Adobe Illustrator 16.0.0, SVG Export Plug-In . SVG Version: 6.00 Build 0)  -->
<!DOCTYPE svg PUBLIC "-//W3C//DTD SVG 1.1//EN" "http://www.w3.org/Graphics/SVG/1.1/DTD/svg11.dtd">
<svg version="1.1" id="Layer_1" xmlns="http://www.w3.org/2000/svg" xmlns:xlink="http://www.w3.org/1999/xlink" x="0px" y="0px"
	 width="50px" height="50px" viewBox="0 0 50 50" enable-background="new 0 0 50 50" xml:space="preserve">
<g id="g24426" transform="matrix(0.81249983,0,0,0.81249983,-96.062439,13.750013)">
	<path id="path6697" fill="#030303" d="M149-8.554c-12.371,0-22.4,10.029-22.4,22.4c0,12.371,10.029,22.4,22.4,22.4
		c12.371,0,22.4-10.029,22.4-22.4C171.4,1.475,161.371-8.554,149-8.554z"/>
	<path id="path6699" fill="#FFFFFF" d="M135.35,18.055c1.776,1.642,6.338,3.198,10.051-0.442c-0.667,0.106-1.225-0.022-1.648-0.44
		c-0.401-0.399-0.424-0.81-0.209-1.184c0.175-0.304,0.543-0.52,0.905-0.743c-0.657,0.121-1.217,0.059-1.718-0.197
		c-0.672-0.343-1.326-0.705-1.509-1.451c0.41-0.433,0.868-0.818,1.858-0.674c-0.931-0.311-1.764-0.716-2.368-1.323
		c-0.588-0.592-0.648-0.976-0.742-1.441c0.513-0.191,1.049-0.289,1.624-0.233c-1.3-0.665-1.853-1.579-2.159-2.576
		c-0.092-0.3-0.109-0.588-0.07-0.882c5.269,1.99,7.737,3.418,9.1,4.759c0.612-1.632,2.041-5.325,4.178-6.593
		c0.01,0.201-0.07,0.417-0.231,0.65c0.632-0.353,1.124-0.916,1.995-0.905c-0.101,0.412-0.388,0.742-0.952,0.951
		c0.567-0.217,1.144-0.403,1.74-0.511c0.555-0.1,0.546,0.337,0.233,0.558c-0.635,0.45-1.31,0.504-1.974,0.72
		c2.034,0.05,3.694,1.013,4.992,3.111c0.433,0.696,0.722,1.395,0.79,2.159c0.865,0.242,1.728,0.291,2.599,0.14
		c0.239-0.043,0.462-0.088,0.675-0.186c-0.339,0.508-0.731,0.925-1.279,1.113c-0.522,0.181-1.046,0.358-1.625,0.372
		c0.942,0.355,1.978,0.376,3.042,0.303c-1.302,1.251-2.297,1.221-3.297,1.207c-0.438,1.852-1.334,3.695-3.226,5.388
		c-2.483,2.216-5.155,3.272-7.916,3.504c-2.588,0.218-5.091,0.188-7.823-1.091C138.364,21.169,136.666,19.863,135.35,18.055
		L135.35,18.055L135.35,18.055L135.35,18.055z"/>
</g>
</svg>
